<?xml version="1.0" encoding="UTF-8"?>
<svg width="60px" height="77px" viewBox="0 0 60 77" version="1.1" xmlns="http://www.w3.org/2000/svg" xmlns:xlink="http://www.w3.org/1999/xlink">
    <!-- Generator: Sketch 57 (83077) - https://sketch.com -->
    <title>Logo</title>
    <desc>Created with Sketch.</desc>
    <g id="Symbols" stroke="none" stroke-width="1" fill="none" fill-rule="evenodd">
        <g id="NAV" transform="translate(-436.000000, 0.000000)" fill="#000000">
            <path d="M465.329,39.076 C456.411,39.076 448.61,34.411 444.377,27.453 C447.445,22.409 452.394,18.583 458.28,16.853 C456.096,18.798 454.712,21.622 454.712,24.774 C454.712,30.64 459.468,35.395 465.329,35.395 C471.196,35.395 475.948,30.64 475.948,24.774 C475.948,21.622 474.565,18.798 472.382,16.853 C478.269,18.582 483.217,22.409 486.286,27.453 C482.053,34.411 474.255,39.076 465.329,39.076 M465.329,15.833 C467.17,15.833 468.661,17.325 468.661,19.163 C468.661,21.004 467.17,22.496 465.329,22.496 C463.49,22.496 461.998,21.004 461.998,19.163 C461.998,17.325 463.49,15.833 465.329,15.833 M468.224,-1.42108547e-14 L436,-1.42108547e-14 L436,76.665 L454.957,76.665 L454.957,55.235 L468.348,55.235 C483.457,55.235 495.965,42.727 495.965,27.37 C495.965,12.385 483.457,-1.42108547e-14 468.224,-1.42108547e-14" id="Logo"></path>
        </g>
    </g>
</svg>