<?xml version="1.0" encoding="UTF-8"?>
<svg width="239px" height="77px" viewBox="0 0 239 77" version="1.1" xmlns="http://www.w3.org/2000/svg" xmlns:xlink="http://www.w3.org/1999/xlink">
    <!-- Generator: Sketch 57 (83077) - https://sketch.com -->
    <title>Nom</title>
    <desc>Created with Sketch.</desc>
    <g id="Symbols" stroke="none" stroke-width="1" fill="none" fill-rule="evenodd">
        <g id="NAV" fill="#000000">
            <g id="Nom" transform="translate(0.000000, 0.420900)">
                <path d="M3.521,3.04 L3.521,9.221 L6.89,9.221 C9.423,9.221 11.019,8.385 11.019,6.105 C11.019,3.952 9.448,3.04 6.89,3.04 L3.521,3.04 Z M3.521,11.981 L3.521,18.035 L0.507,18.035 L0.507,0.305 L7.27,0.305 C11.398,0.305 14.033,2.381 14.033,6.08 C14.033,9.778 11.398,11.981 7.27,11.981 L3.521,11.981 Z" id="Fill-1"></path>
                <path d="M20.7852,15.7807 C21.8992,15.7807 23.0642,15.3247 23.6982,14.7167 L23.6982,13.2987 C22.9632,13.0197 22.1532,12.7917 21.1142,12.7917 C19.7972,12.7917 18.9102,13.3237 18.9102,14.3367 C18.9102,15.1217 19.5182,15.7807 20.7852,15.7807 M16.0232,14.5397 C16.0232,11.7027 18.3282,10.3857 21.1902,10.3857 C22.1272,10.3857 23.1662,10.6387 23.6982,10.8167 L23.6982,9.9807 C23.6982,8.7137 22.6092,7.9287 21.2662,7.9287 C20.3042,7.9287 19.1132,8.3087 18.3282,9.7267 L16.3782,7.9037 C17.3662,6.1557 19.3922,5.3197 21.2912,5.3197 C24.3822,5.3197 26.5852,6.8397 26.5852,10.0057 L26.5852,18.0347 L23.7482,18.0347 L23.7482,17.0727 C22.9632,17.7567 21.7982,18.3137 20.2022,18.3137 C17.9482,18.3137 16.0232,16.9207 16.0232,14.5397" id="Fill-3"></path>
                <path d="M30.6147,13.6533 L30.6147,8.2073 L28.7907,8.2073 L28.7907,5.6233 L30.6147,5.6233 L30.6147,2.1533 L33.4767,2.1533 L33.4767,5.6233 L36.4407,5.6233 L36.4407,8.2073 L33.4767,8.2073 L33.4767,13.2223 C33.4767,15.0213 33.8827,15.4773 35.5037,15.4773 C35.7817,15.4773 36.4407,15.4263 36.4407,15.4263 L36.4407,18.0093 C36.4407,18.0093 35.8837,18.0603 34.8957,18.0603 C31.6537,18.0603 30.6147,16.7943 30.6147,13.6533" id="Fill-5"></path>
                <path d="M46.5747,8.207 C46.5747,8.207 46.3717,8.182 46.1187,8.182 C43.2057,8.182 42.2937,9.828 42.2937,13.172 L42.2937,18.035 L39.4067,18.035 L39.4067,5.624 L42.2427,5.624 L42.2427,6.966 C43.2057,5.801 44.3707,5.446 46.0177,5.446 C46.0937,5.446 46.2707,5.446 46.5747,5.472 L46.5747,8.207 Z" id="Fill-7"></path>
                <path d="M48.919,18.035 L51.807,18.035 L51.807,5.623 L48.919,5.623 L48.919,18.035 Z M50.363,-7.46069873e-14 C51.376,-7.46069873e-14 52.187,0.786 52.187,1.799 C52.187,2.812 51.376,3.623 50.363,3.623 C49.35,3.623 48.54,2.812 48.54,1.799 C48.54,0.786 49.35,-7.46069873e-14 50.363,-7.46069873e-14 L50.363,-7.46069873e-14 Z" id="Fill-9"></path>
                <path d="M57.7646,11.8295 C57.7646,14.0835 59.2086,15.7045 61.1586,15.7045 C62.7036,15.7045 63.5146,14.9445 64.3496,13.7795 L66.3266,15.6285 C65.3376,17.0725 63.6156,18.3135 61.0576,18.3135 C57.6376,18.3135 54.8266,15.5525 54.8266,11.8295 C54.8266,8.1055 57.6376,5.3195 61.0576,5.3195 C63.3116,5.3195 64.9076,6.2565 66.0976,7.8015 L64.0976,9.7265 C63.3116,8.6885 62.4506,7.9545 61.1336,7.9545 C59.1826,7.9545 57.7646,9.5755 57.7646,11.8295" id="Fill-11"></path>
                <polygon id="Fill-12" points="79.6973 5.6235 74.8593 10.9425 80.0263 18.0355 76.5813 18.0355 72.9343 13.0705 71.7943 14.3115 71.7943 18.0355 68.9063 18.0355 68.9063 0.3045 71.7943 0.3045 71.7943 10.4365 76.1003 5.6235"></polygon>
                <polygon id="Fill-13" points="93.2222 18.0351 90.2082 18.0351 90.2082 0.3051 101.8342 0.3051 101.8342 3.0401 93.2222 3.0401 93.2222 7.5991 101.2522 7.5991 101.2522 10.3601 93.2222 10.3601"></polygon>
                <polygon id="Fill-14" points="104.503 18.035 107.391 18.035 107.391 0.305 104.503 0.305"></polygon>
                <path d="M113.6523,10.3857 L118.9463,10.3857 C118.9213,9.2967 118.2873,7.9537 116.3623,7.9537 C114.7413,7.9537 113.8803,9.1957 113.6523,10.3857 L113.6523,10.3857 Z M113.5003,12.6907 C113.6523,14.5647 114.9193,15.7047 116.7683,15.7047 C118.2363,15.7047 119.2503,14.9957 119.9593,13.9567 L121.9093,15.7807 C120.8453,17.1487 119.3003,18.3137 116.7683,18.3137 C113.0443,18.3137 110.5363,15.6797 110.5363,11.9057 C110.5363,8.3087 112.7403,5.3197 116.3373,5.3197 C120.3393,5.3197 122.0113,8.5367 122.0113,11.6777 C122.0113,12.1077 121.9853,12.6907 121.9853,12.6907 L113.5003,12.6907 Z" id="Fill-15"></path>
                <path d="M127.9785,5.6235 L127.9785,13.0455 C127.9785,14.6665 128.8145,15.7295 130.3095,15.7295 C131.9805,15.7295 132.8925,14.4385 132.8925,12.6145 L132.8925,5.6235 L135.7805,5.6235 L135.7805,18.0355 L132.9435,18.0355 L132.9435,17.0215 C132.1585,17.8835 131.0685,18.3135 129.7265,18.3135 C126.9655,18.3135 125.0905,16.3635 125.0905,12.8425 L125.0905,5.6235 L127.9785,5.6235 Z" id="Fill-16"></path>
                <path d="M146.7349,8.207 C146.7349,8.207 146.5319,8.182 146.2789,8.182 C143.3659,8.182 142.4539,9.828 142.4539,13.172 L142.4539,18.035 L139.5669,18.035 L139.5669,5.624 L142.4029,5.624 L142.4029,6.966 C143.3659,5.801 144.5309,5.446 146.1779,5.446 C146.2539,5.446 146.4309,5.446 146.7349,5.472 L146.7349,8.207 Z" id="Fill-17"></path>
                <polygon id="Fill-18" points="151.1621 22.9492 153.1121 17.8832 148.4011 5.6232 151.6941 5.6232 154.7331 14.2102 157.7981 5.6232 160.9641 5.6232 154.2011 22.9492"></polygon>
                <polygon id="Fill-19" points="1.59872116e-14 41.798 24.316 41.798 24.316 39.138 1.59872116e-14 39.138"></polygon>
                <path d="M44.5234,40.5561 L44.5234,37.8211 L51.5904,37.8211 L51.5904,44.0521 C49.9954,46.0271 47.2844,47.3951 44.2194,47.3951 C39.3314,47.3951 35.2524,43.6971 35.2524,38.2771 C35.2524,32.7551 39.2044,29.0821 44.3974,29.0821 C47.5384,29.0821 49.8174,30.3991 51.3374,32.4261 L49.3614,34.4521 C48.3234,32.9571 46.7524,31.8431 44.4474,31.8431 C40.9524,31.8431 38.3434,34.5531 38.3434,38.2771 C38.3434,41.9241 40.9524,44.6341 44.5744,44.6341 C46.2204,44.6341 47.5384,44.1021 48.6014,43.1651 L48.6014,40.5561 L44.5234,40.5561 Z" id="Fill-20"></path>
                <path d="M62.4849,37.289 C62.4849,37.289 62.2819,37.264 62.0289,37.264 C59.1159,37.264 58.2039,38.91 58.2039,42.253 L58.2039,47.117 L55.3169,47.117 L55.3169,34.705 L58.1529,34.705 L58.1529,36.048 C59.1159,34.882 60.2809,34.528 61.9279,34.528 C62.0039,34.528 62.1809,34.528 62.4849,34.553 L62.4849,37.289 Z" id="Fill-21"></path>
                <path d="M69.1133,44.8623 C70.2273,44.8623 71.3923,44.4063 72.0263,43.7983 L72.0263,42.3803 C71.2913,42.1013 70.4813,41.8733 69.4423,41.8733 C68.1253,41.8733 67.2383,42.4053 67.2383,43.4183 C67.2383,44.2033 67.8463,44.8623 69.1133,44.8623 M64.3513,43.6213 C64.3513,40.7843 66.6563,39.4673 69.5183,39.4673 C70.4553,39.4673 71.4943,39.7203 72.0263,39.8983 L72.0263,39.0623 C72.0263,37.7953 70.9373,37.0103 69.5943,37.0103 C68.6323,37.0103 67.4413,37.3903 66.6563,38.8083 L64.7063,36.9853 C65.6943,35.2373 67.7203,34.4013 69.6193,34.4013 C72.7103,34.4013 74.9133,35.9213 74.9133,39.0873 L74.9133,47.1163 L72.0763,47.1163 L72.0763,46.1543 C71.2913,46.8383 70.1263,47.3953 68.5303,47.3953 C66.2763,47.3953 64.3513,46.0023 64.3513,43.6213" id="Fill-22"></path>
                <path d="M84.7988,44.8623 C87.0028,44.8623 88.1168,43.0133 88.1168,40.9363 C88.1168,38.8593 87.0028,37.0103 84.7988,37.0103 C82.5698,37.0103 81.4808,38.8593 81.4808,40.9363 C81.4808,43.0133 82.5698,44.8623 84.7988,44.8623 M85.0018,47.3953 C83.3808,47.3953 82.2398,46.7873 81.5308,46.2053 L81.5308,52.0303 L78.6438,52.0303 L78.6438,34.7053 L81.4808,34.7053 L81.4808,35.8203 C82.2398,35.0093 83.2538,34.4013 85.0018,34.4013 C88.5728,34.4013 91.0548,37.1873 91.0548,40.9113 C91.0548,44.6343 88.5728,47.3953 85.0018,47.3953" id="Fill-23"></path>
                <path d="M97.0903,47.1166 L94.2023,47.1166 L94.2023,29.3856 L97.0903,29.3856 L97.0903,35.5666 C97.7233,34.9836 98.8123,34.4016 100.1803,34.4016 C103.0933,34.4016 105.1703,36.3766 105.1703,39.8976 L105.1703,47.1166 L102.2823,47.1166 L102.2823,39.8976 C102.2823,38.1756 101.4223,37.0106 99.8263,37.0106 C98.0273,37.0106 97.0903,38.3016 97.0903,40.2526 L97.0903,47.1166 Z" id="Fill-24"></path>
                <path d="M108.833,47.117 L111.721,47.117 L111.721,34.705 L108.833,34.705 L108.833,47.117 Z M110.277,29.082 C111.29,29.082 112.101,29.867 112.101,30.88 C112.101,31.894 111.29,32.704 110.277,32.704 C109.264,32.704 108.453,31.894 108.453,30.88 C108.453,29.867 109.264,29.082 110.277,29.082 L110.277,29.082 Z" id="Fill-25"></path>
                <path d="M117.6782,40.9111 C117.6782,43.1651 119.1222,44.7861 121.0722,44.7861 C122.6172,44.7861 123.4282,44.0261 124.2632,42.8611 L126.2402,44.7101 C125.2522,46.1541 123.5292,47.3951 120.9712,47.3951 C117.5522,47.3951 114.7402,44.6341 114.7402,40.9111 C114.7402,37.1871 117.5522,34.4011 120.9712,34.4011 C123.2252,34.4011 124.8212,35.3381 126.0112,36.8841 L124.0112,38.8081 C123.2252,37.7701 122.3642,37.0361 121.0472,37.0361 C119.0962,37.0361 117.6782,38.6571 117.6782,40.9111" id="Fill-26"></path>
                <path d="M139.8403,32.1215 L139.8403,44.3805 L141.8163,44.3805 C145.5903,44.3805 148.8823,43.1405 148.8823,38.1245 C148.8823,33.2865 145.5903,32.1215 141.7913,32.1215 L139.8403,32.1215 Z M136.8263,47.1165 L136.8263,29.3855 L142.3733,29.3855 C147.1603,29.3855 151.9733,31.4125 151.9733,38.1245 C151.9733,44.8625 147.1603,47.1165 142.3733,47.1165 L136.8263,47.1165 Z" id="Fill-27"></path>
                <path d="M157.6421,39.4672 L162.9361,39.4672 C162.9111,38.3782 162.2771,37.0352 160.3521,37.0352 C158.7311,37.0352 157.8701,38.2772 157.6421,39.4672 L157.6421,39.4672 Z M157.4901,41.7722 C157.6421,43.6462 158.9091,44.7862 160.7581,44.7862 C162.2261,44.7862 163.2401,44.0772 163.9491,43.0382 L165.8991,44.8622 C164.8361,46.2302 163.2901,47.3952 160.7581,47.3952 C157.0341,47.3952 154.5261,44.7612 154.5261,40.9872 C154.5261,37.3902 156.7301,34.4012 160.3271,34.4012 C164.3291,34.4012 166.0011,37.6182 166.0011,40.7592 C166.0011,41.1892 165.9751,41.7722 165.9751,41.7722 L157.4901,41.7722 Z" id="Fill-28"></path>
                <path d="M172.5146,42.0253 C170.1846,41.4423 168.7406,40.2523 168.7406,38.0993 C168.7406,35.7943 170.6656,34.4013 173.2746,34.4013 C175.3516,34.4013 176.7706,35.2873 177.9106,36.4783 L176.1116,38.4543 C175.5546,37.6943 174.5916,36.8833 173.1986,36.8833 C172.1346,36.8833 171.5016,37.4153 171.5016,38.0483 C171.5016,38.6563 172.0336,39.0623 172.7176,39.2133 L174.6676,39.6703 C176.7956,40.1763 178.3666,41.3663 178.3666,43.5453 C178.3666,45.6983 176.6946,47.3953 173.4266,47.3953 C170.8176,47.3953 169.2226,46.2053 168.2596,44.9893 L170.0826,43.1143 C170.9946,44.3053 172.1856,44.9133 173.6546,44.9133 C175.1496,44.9133 175.5796,44.2543 175.5796,43.6463 C175.5796,43.1143 175.2506,42.7093 174.1606,42.4303 L172.5146,42.0253 Z" id="Fill-29"></path>
                <path d="M181.298,47.117 L184.186,47.117 L184.186,34.705 L181.298,34.705 L181.298,47.117 Z M182.742,29.082 C183.755,29.082 184.566,29.867 184.566,30.88 C184.566,31.894 183.755,32.704 182.742,32.704 C181.729,32.704 180.918,31.894 180.918,30.88 C180.918,29.867 181.729,29.082 182.742,29.082 L182.742,29.082 Z" id="Fill-30"></path>
                <path d="M193.3096,44.2036 C195.2346,44.2036 196.5006,42.7096 196.5006,40.6326 C196.5006,38.5296 195.2346,37.0356 193.3096,37.0356 C191.3596,37.0356 190.1436,38.5296 190.1436,40.6326 C190.1436,42.7096 191.3596,44.2036 193.3096,44.2036 L193.3096,44.2036 Z M189.7126,47.5726 C190.2446,48.5356 191.2836,49.7256 193.1576,49.7256 C195.0576,49.7256 196.4506,48.6116 196.4506,46.2556 L196.4506,45.6216 C195.7156,46.3066 194.6526,46.8376 193.1326,46.8376 C189.6366,46.8376 187.2056,44.2036 187.2056,40.6326 C187.2056,37.0356 189.6876,34.4016 193.1326,34.4016 C194.7026,34.4016 195.6906,34.9076 196.5006,35.7186 L196.5006,34.7046 L199.3376,34.7046 L199.3376,46.1036 C199.3376,49.8526 196.9066,52.3086 193.2086,52.3086 C190.0166,52.3086 188.2686,50.4346 187.6356,49.5486 L189.7126,47.5726 Z" id="Fill-31"></path>
                <path d="M206.0122,47.1166 L203.1242,47.1166 L203.1242,34.7046 L205.9612,34.7046 L205.9612,35.7186 C206.5952,35.0096 207.7342,34.4016 209.1782,34.4016 C212.2182,34.4016 214.0922,36.3766 214.0922,39.8976 L214.0922,47.1166 L211.2042,47.1166 L211.2042,39.8976 C211.2042,38.1756 210.3442,37.0106 208.7482,37.0106 C206.9492,37.0106 206.0122,38.3016 206.0122,40.2526 L206.0122,47.1166 Z" id="Fill-32"></path>
                <path d="M220.2422,39.4672 L225.5362,39.4672 C225.5112,38.3782 224.8772,37.0352 222.9522,37.0352 C221.3312,37.0352 220.4702,38.2772 220.2422,39.4672 L220.2422,39.4672 Z M220.0902,41.7722 C220.2422,43.6462 221.5092,44.7862 223.3582,44.7862 C224.8262,44.7862 225.8402,44.0772 226.5492,43.0382 L228.4992,44.8622 C227.4352,46.2302 225.8902,47.3952 223.3582,47.3952 C219.6342,47.3952 217.1262,44.7612 217.1262,40.9872 C217.1262,37.3902 219.3302,34.4012 222.9272,34.4012 C226.9292,34.4012 228.6012,37.6182 228.6012,40.7592 C228.6012,41.1892 228.5752,41.7722 228.5752,41.7722 L220.0902,41.7722 Z" id="Fill-33"></path>
                <path d="M238.9526,37.289 C238.9526,37.289 238.7496,37.264 238.4966,37.264 C235.5836,37.264 234.6716,38.91 234.6716,42.253 L234.6716,47.117 L231.7846,47.117 L231.7846,34.705 L234.6206,34.705 L234.6206,36.048 C235.5836,34.882 236.7486,34.528 238.3956,34.528 C238.4716,34.528 238.6486,34.528 238.9526,34.553 L238.9526,37.289 Z" id="Fill-34"></path>
                <path d="M42.7251,62.5708 L40.0401,69.6378 L45.4351,69.6378 L42.7251,62.5708 Z M44.2701,58.4678 L51.1851,76.1978 L48.0191,76.1978 L46.5241,72.4248 L38.9511,72.4248 L37.4821,76.1978 L34.2901,76.1978 L41.2301,58.4678 L44.2701,58.4678 Z" id="Fill-35"></path>
                <path d="M60.7622,66.3701 C60.7622,66.3701 60.5592,66.3451 60.3062,66.3451 C57.3932,66.3451 56.4812,67.9911 56.4812,71.3351 L56.4812,76.1981 L53.5942,76.1981 L53.5942,63.7871 L56.4302,63.7871 L56.4302,65.1291 C57.3932,63.9641 58.5582,63.6091 60.2052,63.6091 C60.2812,63.6091 60.4582,63.6091 60.7622,63.6351 L60.7622,66.3701 Z" id="Fill-36"></path>
                <path d="M64.2266,71.8164 L64.2266,66.3704 L62.4026,66.3704 L62.4026,63.7864 L64.2266,63.7864 L64.2266,60.3164 L67.0886,60.3164 L67.0886,63.7864 L70.0526,63.7864 L70.0526,66.3704 L67.0886,66.3704 L67.0886,71.3854 C67.0886,73.1844 67.4946,73.6404 69.1156,73.6404 C69.3936,73.6404 70.0526,73.5894 70.0526,73.5894 L70.0526,76.1724 C70.0526,76.1724 69.4956,76.2234 68.5076,76.2234 C65.2656,76.2234 64.2266,74.9574 64.2266,71.8164" id="Fill-37"></path>
                <path d="M83.8306,61.2031 L83.8306,73.4631 L85.8066,73.4631 C89.5806,73.4631 92.8726,72.2221 92.8726,67.2061 C92.8726,62.3681 89.5806,61.2031 85.7816,61.2031 L83.8306,61.2031 Z M80.8166,76.1981 L80.8166,58.4681 L86.3636,58.4681 C91.1506,58.4681 95.9636,60.4941 95.9636,67.2061 C95.9636,73.9441 91.1506,76.1981 86.3636,76.1981 L80.8166,76.1981 Z" id="Fill-38"></path>
                <path d="M99.203,76.199 L102.091,76.199 L102.091,63.787 L99.203,63.787 L99.203,76.199 Z M100.646,58.164 C101.66,58.164 102.47,58.949 102.47,59.962 C102.47,60.975 101.66,61.786 100.646,61.786 C99.633,61.786 98.823,60.975 98.823,59.962 C98.823,58.949 99.633,58.164 100.646,58.164 L100.646,58.164 Z" id="Fill-39"></path>
                <path d="M113.0278,66.3701 C113.0278,66.3701 112.8248,66.3451 112.5718,66.3451 C109.6588,66.3451 108.7468,67.9911 108.7468,71.3351 L108.7468,76.1981 L105.8598,76.1981 L105.8598,63.7871 L108.6958,63.7871 L108.6958,65.1291 C109.6588,63.9641 110.8238,63.6091 112.4708,63.6091 C112.5468,63.6091 112.7238,63.6091 113.0278,63.6351 L113.0278,66.3701 Z" id="Fill-40"></path>
                <path d="M117.7915,68.5488 L123.0855,68.5488 C123.0605,67.4598 122.4265,66.1168 120.5015,66.1168 C118.8805,66.1168 118.0195,67.3588 117.7915,68.5488 L117.7915,68.5488 Z M117.6395,70.8538 C117.7915,72.7278 119.0585,73.8678 120.9075,73.8678 C122.3755,73.8678 123.3895,73.1588 124.0985,72.1198 L126.0485,73.9438 C124.9855,75.3118 123.4395,76.4768 120.9075,76.4768 C117.1835,76.4768 114.6755,73.8428 114.6755,70.0688 C114.6755,66.4718 116.8795,63.4828 120.4765,63.4828 C124.4785,63.4828 126.1505,66.6998 126.1505,69.8408 C126.1505,70.2708 126.1245,70.8538 126.1245,70.8538 L117.6395,70.8538 Z" id="Fill-41"></path>
                <path d="M131.5703,69.9926 C131.5703,72.2466 133.0143,73.8676 134.9643,73.8676 C136.5093,73.8676 137.3203,73.1076 138.1553,71.9426 L140.1323,73.7916 C139.1433,75.2356 137.4213,76.4766 134.8633,76.4766 C131.4433,76.4766 128.6323,73.7156 128.6323,69.9926 C128.6323,66.2686 131.4433,63.4826 134.8633,63.4826 C137.1173,63.4826 138.7133,64.4196 139.9033,65.9646 L137.9033,67.8896 C137.1173,66.8516 136.2563,66.1176 134.9393,66.1176 C132.9883,66.1176 131.5703,67.7386 131.5703,69.9926" id="Fill-42"></path>
                <path d="M143.6543,71.8164 L143.6543,66.3704 L141.8303,66.3704 L141.8303,63.7864 L143.6543,63.7864 L143.6543,60.3164 L146.5163,60.3164 L146.5163,63.7864 L149.4803,63.7864 L149.4803,66.3704 L146.5163,66.3704 L146.5163,71.3854 C146.5163,73.1844 146.9223,73.6404 148.5433,73.6404 C148.8213,73.6404 149.4803,73.5894 149.4803,73.5894 L149.4803,76.1724 C149.4803,76.1724 148.9233,76.2234 147.9353,76.2234 C144.6933,76.2234 143.6543,74.9574 143.6543,71.8164" id="Fill-43"></path>
                <path d="M157.7729,73.8681 C159.7739,73.8681 161.2179,72.2471 161.2179,69.9931 C161.2179,67.7381 159.7739,66.1171 157.7729,66.1171 C155.7469,66.1171 154.3029,67.7381 154.3029,69.9931 C154.3029,72.2471 155.7469,73.8681 157.7729,73.8681 M157.7729,63.4831 C161.3439,63.4831 164.1809,66.2691 164.1809,69.9931 C164.1809,73.7161 161.3439,76.4771 157.7729,76.4771 C154.1759,76.4771 151.3639,73.7161 151.3639,69.9931 C151.3639,66.2691 154.1759,63.4831 157.7729,63.4831" id="Fill-44"></path>
                <path d="M174.4517,66.3701 C174.4517,66.3701 174.2487,66.3451 173.9957,66.3451 C171.0827,66.3451 170.1707,67.9911 170.1707,71.3351 L170.1707,76.1981 L167.2837,76.1981 L167.2837,63.7871 L170.1197,63.7871 L170.1197,65.1291 C171.0827,63.9641 172.2477,63.6091 173.8947,63.6091 C173.9707,63.6091 174.1477,63.6091 174.4517,63.6351 L174.4517,66.3701 Z" id="Fill-45"></path>
            </g>
        </g>
    </g>
</svg>