<?xml version="1.0" encoding="UTF-8" standalone="no"?>
<!DOCTYPE svg PUBLIC "-//W3C//DTD SVG 1.1//EN" "http://www.w3.org/Graphics/SVG/1.1/DTD/svg11.dtd">
<svg width="100%" height="100%" viewBox="0 0 64 64" version="1.1" xmlns="http://www.w3.org/2000/svg" xmlns:xlink="http://www.w3.org/1999/xlink" xml:space="preserve" xmlns:serif="http://www.serif.com/" style="fill-rule:evenodd;clip-rule:evenodd;stroke-linejoin:round;stroke-miterlimit:2;">
    <rect x="0" y="0" width="64" height="64" style="fill:rgb(195,229,255);"/>
    <g id="Logo" transform="matrix(0.718684,0,0,0.718684,-302.912,4.28355)">
        <path d="M465.329,39.076C456.411,39.076 448.61,34.411 444.377,27.453C447.445,22.409 452.394,18.583 458.28,16.853C456.096,18.798 454.712,21.622 454.712,24.774C454.712,30.64 459.468,35.395 465.329,35.395C471.196,35.395 475.948,30.64 475.948,24.774C475.948,21.622 474.565,18.798 472.382,16.853C478.269,18.582 483.217,22.409 486.286,27.453C482.053,34.411 474.255,39.076 465.329,39.076M465.329,15.833C467.17,15.833 468.661,17.325 468.661,19.163C468.661,21.004 467.17,22.496 465.329,22.496C463.49,22.496 461.998,21.004 461.998,19.163C461.998,17.325 463.49,15.833 465.329,15.833M468.224,0L436,0L436,76.665L454.957,76.665L454.957,55.235L468.348,55.235C483.457,55.235 495.965,42.727 495.965,27.37C495.965,12.385 483.457,0 468.224,0"/>
    </g>
</svg>
