<?xml version="1.0" encoding="UTF-8"?>
<!-- Generator: Adobe Illustrator 24.0.1, SVG Export Plug-In . SVG Version: 6.00 Build 0)  -->
<svg version="1.1" id="Layer_1" xmlns="http://www.w3.org/2000/svg" xmlns:xlink="http://www.w3.org/1999/xlink" x="0px" y="0px" viewBox="0 0 268.7 81.9" style="enable-background:new 0 0 268.7 81.9;" xml:space="preserve">
<style type="text/css">
	.st0{fill:#231F20;}
</style>
<title>Nom</title>
<desc>Created with Sketch.</desc>
<g>
	<g>
		<path class="st0" d="M3.7,12.3v6.1h-3V0.6h6.8c4.1,0,6.8,2.1,6.8,5.8s-2.6,5.9-6.8,5.9H3.7z M3.7,3.4v6.2H7c2.5,0,4.1-0.8,4.1-3.1    c0-2.2-1.6-3.1-4.1-3.1H3.7z"/>
		<path class="st0" d="M16.2,14.9c0-2.8,2.3-4.2,5.2-4.2c0.9,0,2,0.3,2.5,0.4v-0.8c0-1.3-1.1-2.1-2.4-2.1c-1,0-2.2,0.4-2.9,1.8    l-2-1.8c1-1.7,3-2.6,4.9-2.6c3.1,0,5.3,1.5,5.3,4.7v8h-2.8v-1c-0.8,0.7-2,1.2-3.5,1.2C18.1,18.6,16.2,17.3,16.2,14.9z M20.9,16.1    c1.1,0,2.3-0.5,2.9-1.1v-1.4c-0.7-0.3-1.5-0.5-2.6-0.5c-1.3,0-2.2,0.5-2.2,1.5C19.1,15.5,19.7,16.1,20.9,16.1z"/>
		<path class="st0" d="M30.8,14V8.5h-1.8V6h1.8V2.5h2.9V6h3v2.6h-3v5c0,1.8,0.4,2.3,2,2.3c0.3,0,0.9-0.1,0.9-0.1v2.6    c0,0-0.6,0.1-1.5,0.1C31.8,18.4,30.8,17.1,30.8,14z"/>
		<path class="st0" d="M46.7,8.5c0,0-0.2,0-0.5,0c-2.9,0-3.8,1.6-3.8,5v4.9h-2.9V6h2.8v1.3c1-1.2,2.1-1.5,3.8-1.5c0.1,0,0.3,0,0.6,0    V8.5z"/>
		<path class="st0" d="M50.5,0.3c1,0,1.8,0.8,1.8,1.8c0,1-0.8,1.8-1.8,1.8s-1.8-0.8-1.8-1.8C48.7,1.1,49.5,0.3,50.5,0.3z M49.1,18.4    V6H52v12.4H49.1z"/>
		<path class="st0" d="M57.9,12.2c0,2.3,1.4,3.9,3.4,3.9c1.5,0,2.4-0.8,3.2-1.9l2,1.8c-1,1.4-2.7,2.7-5.3,2.7    c-3.4,0-6.2-2.8-6.2-6.5c0-3.7,2.8-6.5,6.2-6.5c2.3,0,3.9,0.9,5,2.5l-2,1.9c-0.8-1-1.6-1.8-3-1.8C59.3,8.3,57.9,9.9,57.9,12.2z"/>
		<path class="st0" d="M79.8,6L75,11.3l5.2,7.1h-3.4l-3.6-5l-1.1,1.2v3.7h-2.9V0.6h2.9v10.1L76.2,6H79.8z"/>
		<path class="st0" d="M93.4,18.4h-3V0.6H102v2.7h-8.6v4.6h8v2.8h-8V18.4z"/>
		<path class="st0" d="M104.7,18.4V0.6h2.9v17.7H104.7z"/>
		<path class="st0" d="M113.6,13c0.2,1.9,1.4,3,3.3,3c1.5,0,2.5-0.7,3.2-1.7l2,1.8c-1.1,1.4-2.6,2.5-5.1,2.5c-3.7,0-6.2-2.6-6.2-6.4    c0-3.6,2.2-6.6,5.8-6.6c4,0,5.7,3.2,5.7,6.4c0,0.4,0,1,0,1H113.6z M113.8,10.7h5.3c0-1.1-0.7-2.4-2.6-2.4    C114.9,8.3,114,9.5,113.8,10.7z"/>
		<path class="st0" d="M128.1,6v7.4c0,1.6,0.8,2.7,2.3,2.7c1.7,0,2.6-1.3,2.6-3.1V6h2.9v12.4h-2.8v-1c-0.8,0.9-1.9,1.3-3.2,1.3    c-2.8,0-4.6-2-4.6-5.5V6H128.1z"/>
		<path class="st0" d="M146.9,8.5c0,0-0.2,0-0.5,0c-2.9,0-3.8,1.6-3.8,5v4.9h-2.9V6h2.8v1.3c1-1.2,2.1-1.5,3.8-1.5    c0.1,0,0.3,0,0.6,0V8.5z"/>
		<path class="st0" d="M151.3,23.3l2-5.1L148.5,6h3.3l3,8.6l3.1-8.6h3.2l-6.8,17.3H151.3z"/>
		<path class="st0" d="M0.1,42.1v-2.7h24.3v2.7H0.1z"/>
		<path class="st0" d="M36.3,47.4V29.7h5.5c4.8,0,9.6,2,9.6,8.7c0,6.7-4.8,9-9.6,9H36.3z M39.3,32.5v12.3h2c3.8,0,7.1-1.2,7.1-6.3    c0-4.8-3.3-6-7.1-6H39.3z"/>
		<path class="st0" d="M56.8,42.1c0.2,1.9,1.4,3,3.3,3c1.5,0,2.5-0.7,3.2-1.7l2,1.8c-1.1,1.4-2.6,2.5-5.1,2.5    c-3.7,0-6.2-2.6-6.2-6.4c0-3.6,2.2-6.6,5.8-6.6c4,0,5.7,3.2,5.7,6.4c0,0.4,0,1,0,1H56.8z M57,39.8h5.3c0-1.1-0.7-2.4-2.6-2.4    C58.1,37.4,57.2,38.6,57,39.8z"/>
		<path class="st0" d="M71.8,42.4c-2.3-0.6-3.8-1.8-3.8-3.9c0-2.3,1.9-3.7,4.5-3.7c2.1,0,3.5,0.9,4.6,2.1l-1.8,2    c-0.6-0.8-1.5-1.6-2.9-1.6c-1.1,0-1.7,0.5-1.7,1.2c0,0.6,0.5,1,1.2,1.2l2,0.5c2.1,0.5,3.7,1.7,3.7,3.9c0,2.2-1.7,3.8-4.9,3.8    c-2.6,0-4.2-1.2-5.2-2.4l1.8-1.9c0.9,1.2,2.1,1.8,3.6,1.8c1.5,0,1.9-0.7,1.9-1.3c0-0.5-0.3-0.9-1.4-1.2L71.8,42.4z"/>
		<path class="st0" d="M82,29.4c1,0,1.8,0.8,1.8,1.8c0,1-0.8,1.8-1.8,1.8s-1.8-0.8-1.8-1.8C80.1,30.2,80.9,29.4,82,29.4z M80.5,47.4    V35h2.9v12.4H80.5z"/>
		<path class="st0" d="M88.8,47.9c0.5,1,1.6,2.2,3.4,2.2c1.9,0,3.3-1.1,3.3-3.5V46c-0.7,0.7-1.8,1.2-3.3,1.2c-3.5,0-5.9-2.6-5.9-6.2    c0-3.6,2.5-6.2,5.9-6.2c1.6,0,2.6,0.5,3.4,1.3v-1h2.8v11.4c0,3.7-2.4,6.2-6.1,6.2c-3.2,0-4.9-1.9-5.6-2.8L88.8,47.9z M92.4,44.5    c1.9,0,3.2-1.5,3.2-3.6c0-2.1-1.3-3.6-3.2-3.6c-2,0-3.2,1.5-3.2,3.6C89.3,43,90.5,44.5,92.4,44.5z"/>
		<path class="st0" d="M105.1,47.4h-2.9V35h2.8v1c0.6-0.7,1.8-1.3,3.2-1.3c3,0,4.9,2,4.9,5.5v7.2h-2.9v-7.2c0-1.7-0.9-2.9-2.5-2.9    c-1.8,0-2.7,1.3-2.7,3.2V47.4z"/>
		<path class="st0" d="M119.1,42.1c0.2,1.9,1.4,3,3.3,3c1.5,0,2.5-0.7,3.2-1.7l2,1.8c-1.1,1.4-2.6,2.5-5.1,2.5    c-3.7,0-6.2-2.6-6.2-6.4c0-3.6,2.2-6.6,5.8-6.6c4,0,5.7,3.2,5.7,6.4c0,0.4,0,1,0,1H119.1z M119.2,39.8h5.3c0-1.1-0.7-2.4-2.6-2.4    C120.3,37.4,119.4,38.6,119.2,39.8z"/>
		<path class="st0" d="M137.9,37.6c0,0-0.2,0-0.5,0c-2.9,0-3.8,1.6-3.8,5v4.9h-2.9V35h2.8v1.3c1-1.2,2.1-1.5,3.8-1.5    c0.1,0,0.3,0,0.6,0V37.6z"/>
		<path class="st0" d="M149.6,47.9c0.5,1,1.6,2.2,3.4,2.2c1.9,0,3.3-1.1,3.3-3.5V46c-0.7,0.7-1.8,1.2-3.3,1.2    c-3.5,0-5.9-2.6-5.9-6.2c0-3.6,2.5-6.2,5.9-6.2c1.6,0,2.6,0.5,3.4,1.3v-1h2.8v11.4c0,3.7-2.4,6.2-6.1,6.2c-3.2,0-4.9-1.9-5.6-2.8    L149.6,47.9z M153.2,44.5c1.9,0,3.2-1.5,3.2-3.6c0-2.1-1.3-3.6-3.2-3.6c-2,0-3.2,1.5-3.2,3.6C150,43,151.2,44.5,153.2,44.5z"/>
		<path class="st0" d="M170.1,37.6c0,0-0.2,0-0.5,0c-2.9,0-3.8,1.6-3.8,5v4.9h-2.9V35h2.8v1.3c1-1.2,2.1-1.5,3.8-1.5    c0.1,0,0.3,0,0.6,0V37.6z"/>
		<path class="st0" d="M171.9,44c0-2.8,2.3-4.2,5.2-4.2c0.9,0,2,0.3,2.5,0.4v-0.8c0-1.3-1.1-2.1-2.4-2.1c-1,0-2.2,0.4-2.9,1.8    l-2-1.8c1-1.7,3-2.6,4.9-2.6c3.1,0,5.3,1.5,5.3,4.7v8h-2.8v-1c-0.8,0.7-2,1.2-3.5,1.2C173.8,47.7,171.9,46.3,171.9,44z     M176.6,45.2c1.1,0,2.3-0.5,2.9-1.1v-1.4c-0.7-0.3-1.5-0.5-2.6-0.5c-1.3,0-2.2,0.5-2.2,1.5C174.8,44.5,175.4,45.2,176.6,45.2z"/>
		<path class="st0" d="M192.5,47.7c-1.6,0-2.8-0.6-3.5-1.2v5.8h-2.9V35h2.8v1.1c0.8-0.8,1.8-1.4,3.5-1.4c3.6,0,6.1,2.8,6.1,6.5    S196,47.7,192.5,47.7z M192.2,45.2c2.2,0,3.3-1.8,3.3-3.9s-1.1-3.9-3.3-3.9c-2.2,0-3.3,1.8-3.3,3.9S190,45.2,192.2,45.2z"/>
		<path class="st0" d="M204.5,47.4h-2.9V29.7h2.9v6.2c0.6-0.6,1.7-1.2,3.1-1.2c2.9,0,5,2,5,5.5v7.2h-2.9v-7.2c0-1.7-0.9-2.9-2.5-2.9    c-1.8,0-2.7,1.3-2.7,3.2V47.4z"/>
		<path class="st0" d="M217.6,29.4c1,0,1.8,0.8,1.8,1.8c0,1-0.8,1.8-1.8,1.8s-1.8-0.8-1.8-1.8C215.8,30.2,216.6,29.4,217.6,29.4z     M216.1,47.4V35h2.9v12.4H216.1z"/>
		<path class="st0" d="M228.1,34.7c1.7,0,2.8,0.6,3.5,1.4V35h2.8v17.3h-2.9v-5.8c-0.7,0.6-1.8,1.2-3.5,1.2c-3.6,0-6.1-2.8-6.1-6.5    S224.5,34.7,228.1,34.7z M228.3,37.3c-2.2,0-3.3,1.8-3.3,3.9s1.1,3.9,3.3,3.9c2.2,0,3.3-1.8,3.3-3.9S230.5,37.3,228.3,37.3z"/>
		<path class="st0" d="M241,35v7.4c0,1.6,0.8,2.7,2.3,2.7c1.7,0,2.6-1.3,2.6-3.1v-7h2.9v12.4h-2.8v-1c-0.8,0.9-1.9,1.3-3.2,1.3    c-2.8,0-4.6-2-4.6-5.5V35H241z"/>
		<path class="st0" d="M254.8,42.1c0.2,1.9,1.4,3,3.3,3c1.5,0,2.5-0.7,3.2-1.7l2,1.8c-1.1,1.4-2.6,2.5-5.1,2.5    c-3.7,0-6.2-2.6-6.2-6.4c0-3.6,2.2-6.6,5.8-6.6c4,0,5.7,3.2,5.7,6.4c0,0.4,0,1,0,1H254.8z M255,39.8h5.3c0-1.1-0.7-2.4-2.6-2.4    C256,37.4,255.2,38.6,255,39.8z"/>
		<path class="st0" d="M36,76.5V58.8h5.5c4.8,0,9.6,2,9.6,8.7c0,6.7-4.8,9-9.6,9H36z M39,61.5v12.3h2c3.8,0,7.1-1.2,7.1-6.3    c0-4.8-3.3-6-7.1-6H39z"/>
		<path class="st0" d="M55.8,58.5c1,0,1.8,0.8,1.8,1.8c0,1-0.8,1.8-1.8,1.8s-1.8-0.8-1.8-1.8C53.9,59.3,54.7,58.5,55.8,58.5z     M54.3,76.5V64.1h2.9v12.4H54.3z"/>
		<path class="st0" d="M68.1,66.7c0,0-0.2,0-0.5,0c-2.9,0-3.8,1.6-3.8,5v4.9h-2.9V64.1h2.8v1.3c1-1.2,2.1-1.5,3.8-1.5    c0.1,0,0.3,0,0.6,0V66.7z"/>
		<path class="st0" d="M72.6,71.2c0.2,1.9,1.4,3,3.3,3c1.5,0,2.5-0.7,3.2-1.7l2,1.8c-1.1,1.4-2.6,2.5-5.1,2.5    c-3.7,0-6.2-2.6-6.2-6.4c0-3.6,2.2-6.6,5.8-6.6c4,0,5.7,3.2,5.7,6.4c0,0.4,0,1,0,1H72.6z M72.8,68.9H78c0-1.1-0.7-2.4-2.6-2.4    C73.8,66.4,73,67.7,72.8,68.9z"/>
		<path class="st0" d="M86.5,70.3c0,2.3,1.4,3.9,3.4,3.9c1.5,0,2.4-0.8,3.2-1.9l2,1.8c-1,1.4-2.7,2.7-5.3,2.7    c-3.4,0-6.2-2.8-6.2-6.5c0-3.7,2.8-6.5,6.2-6.5c2.3,0,3.9,0.9,5,2.5l-2,1.9c-0.8-1-1.6-1.8-3-1.8C87.9,66.4,86.5,68.1,86.5,70.3z"/>
		<path class="st0" d="M98.5,72.1v-5.4h-1.8v-2.6h1.8v-3.5h2.9v3.5h3v2.6h-3v5c0,1.8,0.4,2.3,2,2.3c0.3,0,0.9-0.1,0.9-0.1v2.6    c0,0-0.6,0.1-1.5,0.1C99.5,76.6,98.5,75.3,98.5,72.1z"/>
		<path class="st0" d="M109.1,71.2c0.2,1.9,1.4,3,3.3,3c1.5,0,2.5-0.7,3.2-1.7l2,1.8c-1.1,1.4-2.6,2.5-5.1,2.5    c-3.7,0-6.2-2.6-6.2-6.4c0-3.6,2.2-6.6,5.8-6.6c4,0,5.7,3.2,5.7,6.4c0,0.4,0,1,0,1H109.1z M109.3,68.9h5.3c0-1.1-0.7-2.4-2.6-2.4    C110.4,66.4,109.5,67.7,109.3,68.9z"/>
		<path class="st0" d="M123.5,64.1v7.4c0,1.6,0.8,2.7,2.3,2.7c1.7,0,2.6-1.3,2.6-3.1v-7h2.9v12.4h-2.8v-1c-0.8,0.9-1.9,1.3-3.2,1.3    c-2.8,0-4.6-2-4.6-5.5v-7.2H123.5z"/>
		<path class="st0" d="M142.2,66.7c0,0-0.2,0-0.5,0c-2.9,0-3.8,1.6-3.8,5v4.9H135V64.1h2.8v1.3c1-1.2,2.1-1.5,3.8-1.5    c0.1,0,0.3,0,0.6,0V66.7z"/>
		<path class="st0" d="M151.4,73c0-2.8,2.3-4.2,5.2-4.2c0.9,0,2,0.3,2.5,0.4v-0.8c0-1.3-1.1-2.1-2.4-2.1c-1,0-2.2,0.4-2.9,1.8    l-2-1.8c1-1.7,3-2.6,4.9-2.6c3.1,0,5.3,1.5,5.3,4.7v8h-2.8v-1c-0.8,0.7-2,1.2-3.5,1.2C153.4,76.8,151.4,75.4,151.4,73z     M156.2,74.3c1.1,0,2.3-0.5,2.9-1.1v-1.4c-0.7-0.3-1.5-0.5-2.6-0.5c-1.3,0-2.2,0.5-2.2,1.5C154.3,73.6,154.9,74.3,156.2,74.3z"/>
		<path class="st0" d="M172.8,66.7c0,0-0.2,0-0.5,0c-2.9,0-3.8,1.6-3.8,5v4.9h-2.9V64.1h2.8v1.3c1-1.2,2.1-1.5,3.8-1.5    c0.1,0,0.3,0,0.6,0V66.7z"/>
		<path class="st0" d="M176.2,72.1v-5.4h-1.8v-2.6h1.8v-3.5h2.9v3.5h3v2.6h-3v5c0,1.8,0.4,2.3,2,2.3c0.3,0,0.9-0.1,0.9-0.1v2.6    c0,0-0.6,0.1-1.5,0.1C177.3,76.6,176.2,75.3,176.2,72.1z"/>
		<path class="st0" d="M186.2,58.5c1,0,1.8,0.8,1.8,1.8c0,1-0.8,1.8-1.8,1.8s-1.8-0.8-1.8-1.8C184.4,59.3,185.2,58.5,186.2,58.5z     M184.8,76.5V64.1h2.9v12.4H184.8z"/>
		<path class="st0" d="M194.7,71.4c-2.3-0.6-3.8-1.8-3.8-3.9c0-2.3,1.9-3.7,4.5-3.7c2.1,0,3.5,0.9,4.6,2.1l-1.8,2    c-0.6-0.8-1.5-1.6-2.9-1.6c-1.1,0-1.7,0.5-1.7,1.2c0,0.6,0.5,1,1.2,1.2l2,0.5c2.1,0.5,3.7,1.7,3.7,3.9c0,2.2-1.7,3.9-4.9,3.9    c-2.6,0-4.2-1.2-5.2-2.4l1.8-1.9c0.9,1.2,2.1,1.8,3.6,1.8c1.5,0,1.9-0.7,1.9-1.3c0-0.5-0.3-0.9-1.4-1.2L194.7,71.4z"/>
		<path class="st0" d="M203.9,72.1v-5.4h-1.8v-2.6h1.8v-3.5h2.9v3.5h3v2.6h-3v5c0,1.8,0.4,2.3,2,2.3c0.3,0,0.9-0.1,0.9-0.1v2.6    c0,0-0.6,0.1-1.5,0.1C205,76.6,203.9,75.3,203.9,72.1z"/>
		<path class="st0" d="M213.9,58.5c1,0,1.8,0.8,1.8,1.8c0,1-0.8,1.8-1.8,1.8c-1,0-1.8-0.8-1.8-1.8C212.1,59.3,212.9,58.5,213.9,58.5    z M212.5,76.5V64.1h2.9v12.4H212.5z"/>
		<path class="st0" d="M224.4,63.8c1.7,0,2.8,0.6,3.5,1.4v-1.1h2.8v17.3h-2.9v-5.8c-0.7,0.6-1.8,1.2-3.5,1.2c-3.6,0-6.1-2.8-6.1-6.5    C218.4,66.6,220.8,63.8,224.4,63.8z M224.6,66.4c-2.2,0-3.3,1.8-3.3,3.9c0,2.1,1.1,3.9,3.3,3.9c2.2,0,3.3-1.8,3.3-3.9    C227.9,68.3,226.8,66.4,224.6,66.4z"/>
		<path class="st0" d="M237.3,64.1v7.4c0,1.6,0.8,2.7,2.3,2.7c1.7,0,2.6-1.3,2.6-3.1v-7h2.9v12.4h-2.8v-1c-0.8,0.9-1.9,1.3-3.2,1.3    c-2.8,0-4.6-2-4.6-5.5v-7.2H237.3z"/>
		<path class="st0" d="M251.2,71.2c0.2,1.9,1.4,3,3.3,3c1.5,0,2.5-0.7,3.2-1.7l2,1.8c-1.1,1.4-2.6,2.5-5.1,2.5    c-3.7,0-6.2-2.6-6.2-6.4c0-3.6,2.2-6.6,5.8-6.6c4,0,5.7,3.2,5.7,6.4c0,0.4,0,1,0,1H251.2z M251.3,68.9h5.3c0-1.1-0.7-2.4-2.6-2.4    C252.4,66.4,251.5,67.7,251.3,68.9z"/>
	</g>
</g>
</svg>